# Rhino

mtllib Goal00.mtl
usemtl diffuse_0
v 0.70160001516342163 0.30000001192092896 -0.70160001516342163
v 0.70160001516342163 0.30000001192092896 -1.0016000270843506
v 1.0016000270843506 0.30000001192092896 -0.70160001516342163
v 1.0016000270843506 0.30000001192092896 -1.0016000270843506
vt 0 0
vt 0 1
vt 1 0
vt 1 1
vn 0 1 0
vn 0 1 0
vn 0 1 0
vn 0 1 0
f 4/4/4 2/2/2 1/1/1 3/3/3
usemtl diffuse_0
v 0.70160001516342163 -2.7939672797572257E-10 -0.70160001516342163
v 0.70160001516342163 -2.7939672797572257E-10 -1.0016000270843506
v 1.0016000270843506 -2.7939672797572257E-10 -0.70160001516342163
v 1.0016000270843506 -2.7939672797572257E-10 -1.0016000270843506
vt 0 0
vt 0 1
vt 1 0
vt 1 1
vn 0 -1 0
vn 0 -1 0
vn 0 -1 0
vn 0 -1 0
f 8/8/8 7/7/7 5/5/5 6/6/6
usemtl diffuse_0
v 0.70160001516342163 -2.7939672797572257E-10 -1.0016000270843506
v 0.70160001516342163 0.30000001192092896 -1.0016000270843506
v 0.70160001516342163 -2.7939672797572257E-10 -0.70160001516342163
v 0.70160001516342163 0.30000001192092896 -0.70160001516342163
vt 0 0
vt 0 1
vt 1 0
vt 1 1
vn -1 0 0
vn -1 0 0
vn -1 0 0
vn -1 0 0
f 12/12/12 10/10/10 9/9/9 11/11/11
usemtl diffuse_0
v 1.0016000270843506 -2.7939672797572257E-10 -1.0016000270843506
v 1.0016000270843506 0.30000001192092896 -1.0016000270843506
v 0.70160001516342163 -2.7939672797572257E-10 -1.0016000270843506
v 0.70160001516342163 0.30000001192092896 -1.0016000270843506
vt 0 0
vt 0 1
vt 1 0
vt 1 1
vn 0 0 -1
vn 0 0 -1
vn 0 0 -1
vn 0 0 -1
f 16/16/16 14/14/14 13/13/13 15/15/15
usemtl diffuse_0
v 1.0016000270843506 -2.7939672797572257E-10 -0.70160001516342163
v 1.0016000270843506 0.30000001192092896 -0.70160001516342163
v 1.0016000270843506 -2.7939672797572257E-10 -1.0016000270843506
v 1.0016000270843506 0.30000001192092896 -1.0016000270843506
vt 0 0
vt 0 1
vt 1 0
vt 1 1
vn 1 0 0
vn 1 0 0
vn 1 0 0
vn 1 0 0
f 20/20/20 18/18/18 17/17/17 19/19/19
usemtl diffuse_0
v 0.70160001516342163 -2.7939672797572257E-10 -0.70160001516342163
v 0.70160001516342163 0.30000001192092896 -0.70160001516342163
v 1.0016000270843506 -2.7939672797572257E-10 -0.70160001516342163
v 1.0016000270843506 0.30000001192092896 -0.70160001516342163
vt 0 0
vt 0 1
vt 1 0
vt 1 1
vn 0 0 1
vn 0 0 1
vn 0 0 1
vn 0 0 1
f 24/24/24 22/22/22 21/21/21 23/23/23
usemtl diffuse_0
v 0.70160001516342163 0.30000001192092896 -0.35080000758171082
v 0.70160001516342163 0.30000001192092896 -0.65079998970031738
v 1.0016000270843506 0.30000001192092896 -0.35080000758171082
v 1.0016000270843506 0.30000001192092896 -0.65079998970031738
vt 0 0
vt 0 1
vt 1 0
vt 1 1
vn 0 1 0
vn 0 1 0
vn 0 1 0
vn 0 1 0
f 28/28/28 26/26/26 25/25/25 27/27/27
usemtl diffuse_0
v 0.70160001516342163 0 -0.35080000758171082
v 0.70160001516342163 0 -0.65079998970031738
v 1.0016000270843506 0 -0.35080000758171082
v 1.0016000270843506 0 -0.65079998970031738
vt 0 0
vt 0 1
vt 1 0
vt 1 1
vn 0 -1 0
vn 0 -1 0
vn 0 -1 0
vn 0 -1 0
f 32/32/32 31/31/31 29/29/29 30/30/30
usemtl diffuse_0
v 0.70160001516342163 0 -0.65079998970031738
v 0.70160001516342163 0.30000001192092896 -0.65079998970031738
v 0.70160001516342163 0 -0.35080000758171082
v 0.70160001516342163 0.30000001192092896 -0.35080000758171082
vt 0 0
vt 0 1
vt 1 0
vt 1 1
vn -1 0 0
vn -1 0 0
vn -1 0 0
vn -1 0 0
f 36/36/36 34/34/34 33/33/33 35/35/35
usemtl diffuse_0
v 1.0016000270843506 0 -0.65079998970031738
v 1.0016000270843506 0.30000001192092896 -0.65079998970031738
v 0.70160001516342163 0 -0.65079998970031738
v 0.70160001516342163 0.30000001192092896 -0.65079998970031738
vt 0 0
vt 0 1
vt 1 0
vt 1 1
vn 0 0 -1
vn 0 0 -1
vn 0 0 -1
vn 0 0 -1
f 40/40/40 38/38/38 37/37/37 39/39/39
usemtl diffuse_0
v 1.0016000270843506 0 -0.35080000758171082
v 1.0016000270843506 0.30000001192092896 -0.35080000758171082
v 1.0016000270843506 0 -0.65079998970031738
v 1.0016000270843506 0.30000001192092896 -0.65079998970031738
vt 0 0
vt 0 1
vt 1 0
vt 1 1
vn 1 0 0
vn 1 0 0
vn 1 0 0
vn 1 0 0
f 44/44/44 42/42/42 41/41/41 43/43/43
usemtl diffuse_0
v 0.70160001516342163 0 -0.35080000758171082
v 0.70160001516342163 0.30000001192092896 -0.35080000758171082
v 1.0016000270843506 0 -0.35080000758171082
v 1.0016000270843506 0.30000001192092896 -0.35080000758171082
vt 0 0
vt 0 1
vt 1 0
vt 1 1
vn 0 0 1
vn 0 0 1
vn 0 0 1
vn 0 0 1
f 48/48/48 46/46/46 45/45/45 47/47/47
usemtl diffuse_0
v 0.35080000758171082 0.30000001192092896 -0.35080000758171082
v 0.35080000758171082 0.30000001192092896 -0.65079998970031738
v 0.65079998970031738 0.30000001192092896 -0.35080000758171082
v 0.65079998970031738 0.30000001192092896 -0.65079998970031738
vt 0 0
vt 0 1
vt 1 0
vt 1 1
vn 0 1 0
vn 0 1 0
vn 0 1 0
vn 0 1 0
f 52/52/52 50/50/50 49/49/49 51/51/51
usemtl diffuse_0
v 0.35080000758171082 0 -0.35080000758171082
v 0.35080000758171082 0 -0.65079998970031738
v 0.65079998970031738 0 -0.35080000758171082
v 0.65079998970031738 0 -0.65079998970031738
vt 0 0
vt 0 1
vt 1 0
vt 1 1
vn 0 -1 0
vn 0 -1 0
vn 0 -1 0
vn 0 -1 0
f 56/56/56 55/55/55 53/53/53 54/54/54
usemtl diffuse_0
v 0.35080000758171082 0 -0.65079998970031738
v 0.35080000758171082 0.30000001192092896 -0.65079998970031738
v 0.35080000758171082 0 -0.35080000758171082
v 0.35080000758171082 0.30000001192092896 -0.35080000758171082
vt 0 0
vt 0 1
vt 1 0
vt 1 1
vn -1 0 0
vn -1 0 0
vn -1 0 0
vn -1 0 0
f 60/60/60 58/58/58 57/57/57 59/59/59
usemtl diffuse_0
v 0.65079998970031738 0 -0.65079998970031738
v 0.65079998970031738 0.30000001192092896 -0.65079998970031738
v 0.35080000758171082 0 -0.65079998970031738
v 0.35080000758171082 0.30000001192092896 -0.65079998970031738
vt 0 0
vt 0 1
vt 1 0
vt 1 1
vn 0 0 -1
vn 0 0 -1
vn 0 0 -1
vn 0 0 -1
f 64/64/64 62/62/62 61/61/61 63/63/63
usemtl diffuse_0
v 0.65079998970031738 0 -0.35080000758171082
v 0.65079998970031738 0.30000001192092896 -0.35080000758171082
v 0.65079998970031738 0 -0.65079998970031738
v 0.65079998970031738 0.30000001192092896 -0.65079998970031738
vt 0 0
vt 0 1
vt 1 0
vt 1 1
vn 1 0 0
vn 1 0 0
vn 1 0 0
vn 1 0 0
f 68/68/68 66/66/66 65/65/65 67/67/67
usemtl diffuse_0
v 0.35080000758171082 0 -0.35080000758171082
v 0.35080000758171082 0.30000001192092896 -0.35080000758171082
v 0.65079998970031738 0 -0.35080000758171082
v 0.65079998970031738 0.30000001192092896 -0.35080000758171082
vt 0 0
vt 0 1
vt 1 0
vt 1 1
vn 0 0 1
vn 0 0 1
vn 0 0 1
vn 0 0 1
f 72/72/72 70/70/70 69/69/69 71/71/71
usemtl diffuse_0
v 0 0.30000001192092896 -0.35080000758171082
v 0 0.30000001192092896 -0.65079998970031738
v 0.30000001192092896 0.30000001192092896 -0.35080000758171082
v 0.30000001192092896 0.30000001192092896 -0.65079998970031738
vt 0 0
vt 0 1
vt 1 0
vt 1 1
vn 0 1 0
vn 0 1 0
vn 0 1 0
vn 0 1 0
f 76/76/76 74/74/74 73/73/73 75/75/75
usemtl diffuse_0
v 0 0 -0.35080000758171082
v 0 0 -0.65079998970031738
v 0.30000001192092896 0 -0.35080000758171082
v 0.30000001192092896 0 -0.65079998970031738
vt 0 0
vt 0 1
vt 1 0
vt 1 1
vn 0 -1 0
vn 0 -1 0
vn 0 -1 0
vn 0 -1 0
f 80/80/80 79/79/79 77/77/77 78/78/78
usemtl diffuse_0
v 0 0 -0.65079998970031738
v 0 0.30000001192092896 -0.65079998970031738
v 0 0 -0.35080000758171082
v 0 0.30000001192092896 -0.35080000758171082
vt 0 0
vt 0 1
vt 1 0
vt 1 1
vn -1 0 0
vn -1 0 0
vn -1 0 0
vn -1 0 0
f 84/84/84 82/82/82 81/81/81 83/83/83
usemtl diffuse_0
v 0.30000001192092896 0 -0.65079998970031738
v 0.30000001192092896 0.30000001192092896 -0.65079998970031738
v 0 0 -0.65079998970031738
v 0 0.30000001192092896 -0.65079998970031738
vt 0 0
vt 0 1
vt 1 0
vt 1 1
vn 0 0 -1
vn 0 0 -1
vn 0 0 -1
vn 0 0 -1
f 88/88/88 86/86/86 85/85/85 87/87/87
usemtl diffuse_0
v 0.30000001192092896 0 -0.35080000758171082
v 0.30000001192092896 0.30000001192092896 -0.35080000758171082
v 0.30000001192092896 0 -0.65079998970031738
v 0.30000001192092896 0.30000001192092896 -0.65079998970031738
vt 0 0
vt 0 1
vt 1 0
vt 1 1
vn 1 0 0
vn 1 0 0
vn 1 0 0
vn 1 0 0
f 92/92/92 90/90/90 89/89/89 91/91/91
usemtl diffuse_0
v 0 0 -0.35080000758171082
v 0 0.30000001192092896 -0.35080000758171082
v 0.30000001192092896 0 -0.35080000758171082
v 0.30000001192092896 0.30000001192092896 -0.35080000758171082
vt 0 0
vt 0 1
vt 1 0
vt 1 1
vn 0 0 1
vn 0 0 1
vn 0 0 1
vn 0 0 1
f 96/96/96 94/94/94 93/93/93 95/95/95
usemtl diffuse_0
v 0 0.30000001192092896 -0.70160001516342163
v 0 0.30000001192092896 -1.0016000270843506
v 0.30000001192092896 0.30000001192092896 -0.70160001516342163
v 0.30000001192092896 0.30000001192092896 -1.0016000270843506
vt 0 0
vt 0 1
vt 1 0
vt 1 1
vn 0 1 0
vn 0 1 0
vn 0 1 0
vn 0 1 0
f 100/100/100 98/98/98 97/97/97 99/99/99
usemtl diffuse_0
v 0 -2.7939672797572257E-10 -0.70160001516342163
v 0 -2.7939672797572257E-10 -1.0016000270843506
v 0.30000001192092896 -2.7939672797572257E-10 -0.70160001516342163
v 0.30000001192092896 -2.7939672797572257E-10 -1.0016000270843506
vt 0 0
vt 0 1
vt 1 0
vt 1 1
vn 0 -1 0
vn 0 -1 0
vn 0 -1 0
vn 0 -1 0
f 104/104/104 103/103/103 101/101/101 102/102/102
usemtl diffuse_0
v 0 -2.7939672797572257E-10 -1.0016000270843506
v 0 0.30000001192092896 -1.0016000270843506
v 0 -2.7939672797572257E-10 -0.70160001516342163
v 0 0.30000001192092896 -0.70160001516342163
vt 0 0
vt 0 1
vt 1 0
vt 1 1
vn -1 0 0
vn -1 0 0
vn -1 0 0
vn -1 0 0
f 108/108/108 106/106/106 105/105/105 107/107/107
usemtl diffuse_0
v 0.30000001192092896 -2.7939672797572257E-10 -1.0016000270843506
v 0.30000001192092896 0.30000001192092896 -1.0016000270843506
v 0 -2.7939672797572257E-10 -1.0016000270843506
v 0 0.30000001192092896 -1.0016000270843506
vt 0 0
vt 0 1
vt 1 0
vt 1 1
vn 0 0 -1
vn 0 0 -1
vn 0 0 -1
vn 0 0 -1
f 112/112/112 110/110/110 109/109/109 111/111/111
usemtl diffuse_0
v 0.30000001192092896 -2.7939672797572257E-10 -0.70160001516342163
v 0.30000001192092896 0.30000001192092896 -0.70160001516342163
v 0.30000001192092896 -2.7939672797572257E-10 -1.0016000270843506
v 0.30000001192092896 0.30000001192092896 -1.0016000270843506
vt 0 0
vt 0 1
vt 1 0
vt 1 1
vn 1 0 0
vn 1 0 0
vn 1 0 0
vn 1 0 0
f 116/116/116 114/114/114 113/113/113 115/115/115
usemtl diffuse_0
v 0 -2.7939672797572257E-10 -0.70160001516342163
v 0 0.30000001192092896 -0.70160001516342163
v 0.30000001192092896 -2.7939672797572257E-10 -0.70160001516342163
v 0.30000001192092896 0.30000001192092896 -0.70160001516342163
vt 0 0
vt 0 1
vt 1 0
vt 1 1
vn 0 0 1
vn 0 0 1
vn 0 0 1
vn 0 0 1
f 120/120/120 118/118/118 117/117/117 119/119/119
usemtl diffuse_0
v 0.35080000758171082 0.30000001192092896 -0.70160001516342163
v 0.35080000758171082 0.30000001192092896 -1.0016000270843506
v 0.65079998970031738 0.30000001192092896 -0.70160001516342163
v 0.65079998970031738 0.30000001192092896 -1.0016000270843506
vt 0 0
vt 0 1
vt 1 0
vt 1 1
vn 0 1 0
vn 0 1 0
vn 0 1 0
vn 0 1 0
f 124/124/124 122/122/122 121/121/121 123/123/123
usemtl diffuse_0
v 0.35080000758171082 -2.7939672797572257E-10 -0.70160001516342163
v 0.35080000758171082 -2.7939672797572257E-10 -1.0016000270843506
v 0.65079998970031738 -2.7939672797572257E-10 -0.70160001516342163
v 0.65079998970031738 -2.7939672797572257E-10 -1.0016000270843506
vt 0 0
vt 0 1
vt 1 0
vt 1 1
vn 0 -1 0
vn 0 -1 0
vn 0 -1 0
vn 0 -1 0
f 128/128/128 127/127/127 125/125/125 126/126/126
usemtl diffuse_0
v 0.35080000758171082 -2.7939672797572257E-10 -1.0016000270843506
v 0.35080000758171082 0.30000001192092896 -1.0016000270843506
v 0.35080000758171082 -2.7939672797572257E-10 -0.70160001516342163
v 0.35080000758171082 0.30000001192092896 -0.70160001516342163
vt 0 0
vt 0 1
vt 1 0
vt 1 1
vn -1 0 0
vn -1 0 0
vn -1 0 0
vn -1 0 0
f 132/132/132 130/130/130 129/129/129 131/131/131
usemtl diffuse_0
v 0.65079998970031738 -2.7939672797572257E-10 -1.0016000270843506
v 0.65079998970031738 0.30000001192092896 -1.0016000270843506
v 0.35080000758171082 -2.7939672797572257E-10 -1.0016000270843506
v 0.35080000758171082 0.30000001192092896 -1.0016000270843506
vt 0 0
vt 0 1
vt 1 0
vt 1 1
vn 0 0 -1
vn 0 0 -1
vn 0 0 -1
vn 0 0 -1
f 136/136/136 134/134/134 133/133/133 135/135/135
usemtl diffuse_0
v 0.65079998970031738 -2.7939672797572257E-10 -0.70160001516342163
v 0.65079998970031738 0.30000001192092896 -0.70160001516342163
v 0.65079998970031738 -2.7939672797572257E-10 -1.0016000270843506
v 0.65079998970031738 0.30000001192092896 -1.0016000270843506
vt 0 0
vt 0 1
vt 1 0
vt 1 1
vn 1 0 0
vn 1 0 0
vn 1 0 0
vn 1 0 0
f 140/140/140 138/138/138 137/137/137 139/139/139
usemtl diffuse_0
v 0.35080000758171082 -2.7939672797572257E-10 -0.70160001516342163
v 0.35080000758171082 0.30000001192092896 -0.70160001516342163
v 0.65079998970031738 -2.7939672797572257E-10 -0.70160001516342163
v 0.65079998970031738 0.30000001192092896 -0.70160001516342163
vt 0 0
vt 0 1
vt 1 0
vt 1 1
vn 0 0 1
vn 0 0 1
vn 0 0 1
vn 0 0 1
f 144/144/144 142/142/142 141/141/141 143/143/143
usemtl diffuse_0
v 0.70160001516342163 0.30000001192092896 0
v 0.70160001516342163 0.30000001192092896 -0.30000001192092896
v 1.0016000270843506 0.30000001192092896 0
v 1.0016000270843506 0.30000001192092896 -0.30000001192092896
vt 0 0
vt 0 1
vt 1 0
vt 1 1
vn 0 1 0
vn 0 1 0
vn 0 1 0
vn 0 1 0
f 148/148/148 146/146/146 145/145/145 147/147/147
usemtl diffuse_0
v 0.70160001516342163 0 0
v 0.70160001516342163 0 -0.30000001192092896
v 1.0016000270843506 0 0
v 1.0016000270843506 0 -0.30000001192092896
vt 0 0
vt 0 1
vt 1 0
vt 1 1
vn 0 -1 0
vn 0 -1 0
vn 0 -1 0
vn 0 -1 0
f 152/152/152 151/151/151 149/149/149 150/150/150
usemtl diffuse_0
v 0.70160001516342163 0 -0.30000001192092896
v 0.70160001516342163 0.30000001192092896 -0.30000001192092896
v 0.70160001516342163 0 0
v 0.70160001516342163 0.30000001192092896 0
vt 0 0
vt 0 1
vt 1 0
vt 1 1
vn -1 0 0
vn -1 0 0
vn -1 0 0
vn -1 0 0
f 156/156/156 154/154/154 153/153/153 155/155/155
usemtl diffuse_0
v 1.0016000270843506 0 -0.30000001192092896
v 1.0016000270843506 0.30000001192092896 -0.30000001192092896
v 0.70160001516342163 0 -0.30000001192092896
v 0.70160001516342163 0.30000001192092896 -0.30000001192092896
vt 0 0
vt 0 1
vt 1 0
vt 1 1
vn 0 0 -1
vn 0 0 -1
vn 0 0 -1
vn 0 0 -1
f 160/160/160 158/158/158 157/157/157 159/159/159
usemtl diffuse_0
v 1.0016000270843506 0 0
v 1.0016000270843506 0.30000001192092896 0
v 1.0016000270843506 0 -0.30000001192092896
v 1.0016000270843506 0.30000001192092896 -0.30000001192092896
vt 0 0
vt 0 1
vt 1 0
vt 1 1
vn 1 0 0
vn 1 0 0
vn 1 0 0
vn 1 0 0
f 164/164/164 162/162/162 161/161/161 163/163/163
usemtl diffuse_0
v 0.70160001516342163 0 0
v 0.70160001516342163 0.30000001192092896 0
v 1.0016000270843506 0 0
v 1.0016000270843506 0.30000001192092896 0
vt 0 0
vt 0 1
vt 1 0
vt 1 1
vn 0 0 1
vn 0 0 1
vn 0 0 1
vn 0 0 1
f 168/168/168 166/166/166 165/165/165 167/167/167
usemtl diffuse_0
v 0.35080000758171082 0.30000001192092896 0
v 0.35080000758171082 0.30000001192092896 -0.30000001192092896
v 0.65079998970031738 0.30000001192092896 0
v 0.65079998970031738 0.30000001192092896 -0.30000001192092896
vt 0 0
vt 0 1
vt 1 0
vt 1 1
vn 0 1 0
vn 0 1 0
vn 0 1 0
vn 0 1 0
f 172/172/172 170/170/170 169/169/169 171/171/171
usemtl diffuse_0
v 0.35080000758171082 0 0
v 0.35080000758171082 0 -0.30000001192092896
v 0.65079998970031738 0 0
v 0.65079998970031738 0 -0.30000001192092896
vt 0 0
vt 0 1
vt 1 0
vt 1 1
vn 0 -1 0
vn 0 -1 0
vn 0 -1 0
vn 0 -1 0
f 176/176/176 175/175/175 173/173/173 174/174/174
usemtl diffuse_0
v 0.35080000758171082 0 -0.30000001192092896
v 0.35080000758171082 0.30000001192092896 -0.30000001192092896
v 0.35080000758171082 0 0
v 0.35080000758171082 0.30000001192092896 0
vt 0 0
vt 0 1
vt 1 0
vt 1 1
vn -1 0 0
vn -1 0 0
vn -1 0 0
vn -1 0 0
f 180/180/180 178/178/178 177/177/177 179/179/179
usemtl diffuse_0
v 0.65079998970031738 0 -0.30000001192092896
v 0.65079998970031738 0.30000001192092896 -0.30000001192092896
v 0.35080000758171082 0 -0.30000001192092896
v 0.35080000758171082 0.30000001192092896 -0.30000001192092896
vt 0 0
vt 0 1
vt 1 0
vt 1 1
vn 0 0 -1
vn 0 0 -1
vn 0 0 -1
vn 0 0 -1
f 184/184/184 182/182/182 181/181/181 183/183/183
usemtl diffuse_0
v 0.65079998970031738 0 0
v 0.65079998970031738 0.30000001192092896 0
v 0.65079998970031738 0 -0.30000001192092896
v 0.65079998970031738 0.30000001192092896 -0.30000001192092896
vt 0 0
vt 0 1
vt 1 0
vt 1 1
vn 1 0 0
vn 1 0 0
vn 1 0 0
vn 1 0 0
f 188/188/188 186/186/186 185/185/185 187/187/187
usemtl diffuse_0
v 0.35080000758171082 0 0
v 0.35080000758171082 0.30000001192092896 0
v 0.65079998970031738 0 0
v 0.65079998970031738 0.30000001192092896 0
vt 0 0
vt 0 1
vt 1 0
vt 1 1
vn 0 0 1
vn 0 0 1
vn 0 0 1
vn 0 0 1
f 192/192/192 190/190/190 189/189/189 191/191/191
usemtl diffuse_0
v 0 0.30000001192092896 0
v 0 0.30000001192092896 -0.30000001192092896
v 0.30000001192092896 0.30000001192092896 0
v 0.30000001192092896 0.30000001192092896 -0.30000001192092896
vt 0 0
vt 0 1
vt 1 0
vt 1 1
vn 0 1 0
vn 0 1 0
vn 0 1 0
vn 0 1 0
f 196/196/196 194/194/194 193/193/193 195/195/195
usemtl diffuse_0
v 0 0 0
v 0 0 -0.30000001192092896
v 0.30000001192092896 0 0
v 0.30000001192092896 0 -0.30000001192092896
vt 0 0
vt 0 1
vt 1 0
vt 1 1
vn 0 -1 0
vn 0 -1 0
vn 0 -1 0
vn 0 -1 0
f 200/200/200 199/199/199 197/197/197 198/198/198
usemtl diffuse_0
v 0 0 -0.30000001192092896
v 0 0.30000001192092896 -0.30000001192092896
v 0 0 0
v 0 0.30000001192092896 0
vt 0 0
vt 0 1
vt 1 0
vt 1 1
vn -1 0 0
vn -1 0 0
vn -1 0 0
vn -1 0 0
f 204/204/204 202/202/202 201/201/201 203/203/203
usemtl diffuse_0
v 0.30000001192092896 0 -0.30000001192092896
v 0.30000001192092896 0.30000001192092896 -0.30000001192092896
v 0 0 -0.30000001192092896
v 0 0.30000001192092896 -0.30000001192092896
vt 0 0
vt 0 1
vt 1 0
vt 1 1
vn 0 0 -1
vn 0 0 -1
vn 0 0 -1
vn 0 0 -1
f 208/208/208 206/206/206 205/205/205 207/207/207
usemtl diffuse_0
v 0.30000001192092896 0 0
v 0.30000001192092896 0.30000001192092896 0
v 0.30000001192092896 0 -0.30000001192092896
v 0.30000001192092896 0.30000001192092896 -0.30000001192092896
vt 0 0
vt 0 1
vt 1 0
vt 1 1
vn 1 0 0
vn 1 0 0
vn 1 0 0
vn 1 0 0
f 212/212/212 210/210/210 209/209/209 211/211/211
usemtl diffuse_0
v 0 0 0
v 0 0.30000001192092896 0
v 0.30000001192092896 0 0
v 0.30000001192092896 0.30000001192092896 0
vt 0 0
vt 0 1
vt 1 0
vt 1 1
vn 0 0 1
vn 0 0 1
vn 0 0 1
vn 0 0 1
f 216/216/216 214/214/214 213/213/213 215/215/215
